<svg width="323" height="108" viewBox="0 0 323 108" fill="none" xmlns="http://www.w3.org/2000/svg">
<path d="M249.523 45.6563V18.7874H242.901V33.0421H229.86V18.7874H217.761L218.639 24.9241H223.235V54.6566H229.86V39.5884H242.901V46.8835C242.901 52.6104 244.995 54.6566 248.511 54.6566H252.565L253.984 48.589H251.483C249.796 48.5887 249.523 47.3592 249.523 45.6563ZM213.841 47.0889L210.87 18.7887H204.854L196.271 38.3615L186.946 18.7887H180.998L177.349 54.6589H184.108L186.406 30.9265L193.567 46.0648H198.706L205.464 30.9265L207.288 47.7025C207.828 52.611 208.91 54.6595 212.965 54.6595H216.478L217.762 49.1351H215.531C214.586 49.1348 214.045 48.7915 213.841 47.0889ZM266.149 43.7457V39.5186H277.571L278.922 33.245H266.148V25.4037H282.164L281.152 18.7887H255.741L254.593 25.4037H259.592V45.1105C259.592 53.8405 266.013 54.6595 267.364 54.6595H281.355L282.841 48.1107H269.797C267.635 48.1104 266.149 47.7697 266.149 43.7457ZM320.215 48.5887C318.525 48.5887 318.252 47.3615 318.252 45.6563V18.7887H312.579L296.897 42.7239V18.7887H284.8L285.746 24.9254H290.343V54.6585H296.154L311.766 30.7211V46.8832C311.766 52.6101 313.861 54.6585 317.374 54.6585H321.296L322.715 48.5884L320.215 48.5887ZM162.293 38.1271L156.129 23.9714C154.438 20.1538 152.817 18.7887 149.91 18.7887H146.937L144.57 24.8576H145.72C148.762 24.8576 149.639 26.493 150.789 28.8809L159.132 46.3715C158.313 47.8645 157.379 48.589 155.925 48.589C154.641 48.589 153.086 48.0432 151.802 46.9513L148.83 52.2703C150.789 53.9758 153.29 54.997 155.992 54.997C159.844 54.997 162.617 53.6351 164.98 47.7025L176.403 18.7887H169.307L162.293 38.1271ZM304.399 17.2886C308.792 17.2886 313.659 15.1051 314.063 8.15039H307.238C307.171 11.0818 305.685 11.6941 304.399 11.6941C303.115 11.6941 301.628 11.0815 301.56 8.15039H294.736C295.14 15.1051 300.008 17.2886 304.399 17.2886Z" fill="#CE524A"/>
<path d="M58.6114 16.2321V0C26.2477 0 0 26.4857 0 59.1429H16.0863C16.0863 35.4536 35.1669 16.2321 58.6114 16.2321Z" fill="#FFC300"/>
<path d="M101.138 59.1429H117.225C117.225 26.4857 90.977 0 58.6133 0V16.2321C82.0579 16.2321 101.138 35.4536 101.138 59.1429Z" fill="#FFC300"/>
<path d="M25.2284 107.743L34.4024 94.3716C23.349 86.6251 16.0863 73.7037 16.0863 59.1108H0C0 79.2644 10.0022 97.0716 25.2284 107.743Z" fill="#FFE27B"/>
<path d="M82.8203 94.4038L91.9943 107.775C107.252 97.1038 117.223 79.2966 117.223 59.1431H101.136C101.136 73.7359 93.8737 86.6252 82.8203 94.4038Z" fill="#FF3A45"/>
<path d="M62.9441 44.478L68.276 29.8288C52.3516 24.0328 34.6304 32.3939 28.7819 48.4627L43.2994 53.7466C46.2237 45.7122 55.0119 41.5909 62.9441 44.478Z" fill="#C1E400"/>
<path d="M72.0365 64.2053L86.554 69.4893C92.4025 53.4205 84.2017 35.6246 68.2773 29.8286L62.9455 44.4777C70.8777 47.3649 74.9607 56.171 72.0365 64.2053Z" fill="#FFE27B"/>
<path d="M43.2988 53.7468L28.7812 48.4629C25.1754 58.3699 26.9152 68.957 32.5155 76.9472L45.1525 67.9328C42.3783 63.913 41.5068 58.6701 43.2988 53.7468Z" fill="#94CE00"/>
<path d="M86.5535 69.4893L72.036 64.2054C70.233 69.1589 66.1955 72.615 61.4974 73.8809L65.3835 88.9092C74.8206 86.358 82.9476 79.3964 86.5535 69.4893Z" fill="#FFCA04"/>
<path d="M89.0312 29.1859C96.517 36.9324 101.136 47.5074 101.136 59.1431H117.222C117.222 43.0074 110.819 28.3824 100.435 17.7109L89.0312 29.1859Z" fill="#FF7523"/>
<path d="M144.348 97.777C144.348 98.4269 144.756 98.8549 145.353 98.8549C145.95 98.8549 146.343 98.4269 146.343 97.777V94.1787H163.78V97.777C163.78 98.4269 164.188 98.8549 164.801 98.8549C165.398 98.8549 165.791 98.4269 165.791 97.777V93.3386C165.791 92.6569 165.367 92.2131 164.723 92.2131H162.916V72.4302C162.916 71.7485 162.492 71.3047 161.848 71.3047H151.071C149.94 71.3047 149.249 71.9071 149.186 72.9216L148.401 86.126C148.196 89.439 147.49 91.4046 145.95 92.2131H145.416C144.756 92.2131 144.348 92.6569 144.348 93.3386V97.777ZM148.731 92.2131V92.1021C149.767 90.9449 150.254 89.2964 150.443 86.2053L151.228 73.2703H160.764V92.2131H148.731Z" fill="#CE524A"/>
<path d="M170.297 94.3531C173.313 94.3531 174.931 91.8326 175.277 86.126L176.062 73.2703H185.127V93.2751C185.127 93.9726 185.551 94.4006 186.211 94.4006C186.855 94.4006 187.279 93.9726 187.279 93.2751V72.4302C187.279 71.7485 186.855 71.3047 186.211 71.3047H175.104C174.46 71.3047 174.083 71.701 174.02 72.4302L173.235 86.0151C172.968 90.4535 171.947 92.324 169.967 92.324H169.857C169.229 92.324 168.789 92.6728 168.789 93.2276C168.805 93.9726 169.307 94.3531 170.297 94.3531Z" fill="#CE524A"/>
<path d="M193.107 94.4006C193.516 94.4006 193.783 94.2421 194.081 93.83L200.443 85.0006H205.706V93.2751C205.706 93.9568 206.13 94.4006 206.774 94.4006C207.418 94.4006 207.842 93.9568 207.842 93.2751V72.4302C207.842 71.7485 207.434 71.3047 206.774 71.3047H199.815C195.479 71.3047 192.557 74.047 192.557 78.1368C192.557 81.64 194.804 84.0812 198.087 84.7311L192.353 92.6728C192.149 92.9581 192.07 93.18 192.07 93.4654C192.07 94.0043 192.494 94.4006 193.107 94.4006ZM205.706 83.0349H200.333C196.815 83.0349 194.741 81.2279 194.741 78.1368C194.741 75.0615 196.799 73.2703 200.333 73.2703H205.706V83.0349Z" fill="#CE524A"/>
<path d="M219.531 97.777C219.531 98.4269 219.94 98.8549 220.537 98.8549C221.134 98.8549 221.526 98.4269 221.526 97.777V94.1787H238.964V97.777C238.964 98.4269 239.372 98.8549 239.985 98.8549C240.582 98.8549 240.974 98.4269 240.974 97.777V93.3386C240.974 92.6569 240.55 92.2131 239.906 92.2131H238.1V72.4302C238.1 71.7485 237.675 71.3047 237.031 71.3047H226.255C225.124 71.3047 224.433 71.9071 224.37 72.9216L223.584 86.126C223.38 89.439 222.673 91.4046 221.134 92.2131H220.599C219.94 92.2131 219.531 92.6569 219.531 93.3386V97.777ZM223.914 92.2131V92.1021C224.951 90.9449 225.438 89.2964 225.626 86.2053L226.412 73.2703H235.947V92.2131H223.914Z" fill="#CE524A"/>
<path d="M246.252 94.1787H258.049C258.662 94.1787 259.086 93.7824 259.086 93.1959C259.086 92.6252 258.662 92.2131 258.049 92.2131H247.32V83.4312H257.484C258.097 83.4312 258.505 83.0349 258.505 82.4643C258.505 81.8936 258.097 81.4973 257.484 81.4973H247.32V73.2703H258.049C258.662 73.2703 259.086 72.8582 259.086 72.2875C259.086 71.701 258.662 71.3047 258.049 71.3047H246.252C245.592 71.3047 245.184 71.7327 245.184 72.4302V93.0532C245.184 93.7507 245.592 94.1787 246.252 94.1787Z" fill="#CE524A"/>
<path d="M270.961 94.4006C271.605 94.4006 272.029 93.9726 272.029 93.2751V73.2703H278.643C279.271 73.2703 279.68 72.8582 279.68 72.2875C279.68 71.701 279.271 71.3047 278.643 71.3047H263.263C262.651 71.3047 262.227 71.701 262.227 72.2875C262.227 72.8582 262.651 73.2703 263.263 73.2703H269.877V93.2751C269.877 93.9726 270.301 94.4006 270.961 94.4006Z" fill="#CE524A"/>
<path d="M284.83 94.1787H296.628C297.24 94.1787 297.664 93.7824 297.664 93.1959C297.664 92.6252 297.24 92.2131 296.628 92.2131H285.898V83.4312H296.062C296.675 83.4312 297.083 83.0349 297.083 82.4643C297.083 81.8936 296.675 81.4973 296.062 81.4973H285.898V73.2703H296.628C297.24 73.2703 297.664 72.8582 297.664 72.2875C297.664 71.701 297.24 71.3047 296.628 71.3047H284.83C284.17 71.3047 283.762 71.7327 283.762 72.4302V93.0532C283.762 93.7507 284.17 94.1787 284.83 94.1787Z" fill="#CE524A"/>
<path d="M311.317 69.5926C313.736 69.5926 315.527 68.2769 315.825 66.232C315.857 66.0576 315.857 65.8991 315.857 65.7247C315.857 65.2809 315.574 64.9639 315.134 64.9639C314.694 64.9639 314.459 65.2016 314.333 65.7723C314.097 67.2782 313.013 68.3086 311.317 68.3086C309.604 68.3086 308.568 67.2782 308.285 65.7723C308.175 65.2016 307.939 64.9639 307.484 64.9639C307.06 64.9639 306.761 65.2809 306.761 65.7247C306.761 65.8991 306.793 66.1052 306.808 66.2796C307.138 68.2927 308.913 69.5926 311.317 69.5926ZM303.635 94.4005C304.248 94.4005 304.593 94.242 305.065 93.5445L317.836 74.8712H318.025V93.2909C318.025 93.9566 318.449 94.4005 319.093 94.4005C319.721 94.4005 320.145 93.9566 320.145 93.2909V72.3032C320.145 71.574 319.674 71.0826 318.967 71.0826C318.37 71.0826 318.04 71.2887 317.616 71.9228L304.813 90.6595H304.625V72.1922C304.625 71.5265 304.201 71.0826 303.556 71.0826C302.928 71.0826 302.504 71.5265 302.504 72.1922V93.1482C302.504 93.9249 302.928 94.4005 303.635 94.4005Z" fill="#CE524A"/>
</svg>
