<svg width="18" height="23" viewBox="0 0 18 23" fill="none" xmlns="http://www.w3.org/2000/svg">
<path d="M15.6528 17.3438C14.6868 16.0608 13.6141 15.1756 12.2118 15.9327L11.3728 16.3922C10.7597 16.7248 9.34178 18.5993 6.5867 13.5285C3.83121 8.46331 6.17691 8.28899 6.7899 7.96038L7.63291 7.501C9.02959 6.74025 8.87201 5.35841 8.32018 3.84971L7.98783 2.9363C7.43147 1.42983 6.69945 0.359293 5.30004 1.11782L4.54302 1.53163C3.94049 1.79473 2.21819 2.70222 1.34965 4.95835C0.306226 7.66511 0.931794 11.1678 3.21267 15.364C5.48936 19.5608 8.09006 21.9915 10.9313 22.5883C13.2924 23.0844 14.9949 22.1354 15.5416 21.7743L16.3011 21.3602C17.6972 20.6018 17.1992 19.4046 16.2329 18.1191L15.6528 17.3438Z" fill="#CE524A"/>
</svg>
