<svg width="34" height="21" viewBox="0 0 34 21" fill="none" xmlns="http://www.w3.org/2000/svg">
<path d="M18.5069 20.979C6.89763 20.979 0.275905 13.1119 0 0H5.81523C6.00624 9.60839 10.2934 13.6364 13.6891 14.5175V0.0209795H19.1648V8.30769C22.5181 7.95105 26.0412 4.17483 27.2297 0.0209795H32.7054C32.2654 2.18104 31.3784 4.22788 30.1001 6.03298C28.8218 7.83809 27.1798 9.36249 25.2772 10.5105C27.3983 11.5505 29.2725 13.023 30.776 14.831C32.2795 16.6391 33.3783 18.7416 34 21H27.9513C27.3964 19.0347 26.2663 17.2753 24.703 15.9428C23.1398 14.6103 21.213 13.7641 19.1648 13.5105V21L18.5069 20.979Z" fill="#FF3A45"/>
</svg>
