<svg version="1.1" xmlns="http://www.w3.org/2000/svg" xmlns:xlink="http://www.w3.org/1999/xlink" width="32px" height="32px" viewBox="0,0,256,256"><g fill="#ffc300" fill-rule="nonzero" stroke="none" stroke-width="1" stroke-linecap="butt" stroke-linejoin="miter" stroke-miterlimit="10" stroke-dasharray="" stroke-dashoffset="0" font-family="none" font-weight="none" font-size="none" text-anchor="none" style="mix-blend-mode: normal"><g transform="translate(0.01027,0.4776) scale(8,8)"><path d="M23.98482,18.3363c-8.581,0 -10.55371,-1.97266 -10.55371,-10.55371c0,-0.33116 -0.26845,-0.59961 -0.59961,-0.59961c-0.33116,0 -0.59961,0.26845 -0.59961,0.59961c0,8.58105 -1.97266,10.55371 -10.55371,10.55371c-0.2148,-0.00088 -0.41366,0.11321 -0.52132,0.29909c-0.10765,0.18588 -0.10765,0.41514 0,0.60102c0.10765,0.18588 0.30652,0.29997 0.52132,0.29909c8.58105,0 10.55371,1.97364 10.55371,10.55469c0,0.33116 0.26845,0.59961 0.59961,0.59961c0.33116,0 0.59961,-0.26845 0.59961,-0.59961c0,-8.581 1.97266,-10.55469 10.55371,-10.55469c0.2148,0.00088 0.41366,-0.11321 0.52132,-0.29909c0.10765,-0.18588 0.10765,-0.41514 0,-0.60102c-0.10765,-0.18588 -0.30652,-0.29997 -0.52132,-0.29909z"></path><path d="M24.476,14.08141c-0.33113,-0.00007 -0.59954,-0.26848 -0.59961,-0.59961c0,-4.36328 -0.88281,-5.24609 -5.24609,-5.24609c-0.33116,0 -0.59961,-0.26845 -0.59961,-0.59961c0,-0.33116 0.26845,-0.59961 0.59961,-0.59961c4.36328,0 5.24609,-0.88281 5.24609,-5.24609c0,-0.33116 0.26845,-0.59961 0.59961,-0.59961c0.33116,0 0.59961,0.26845 0.59961,0.59961c0,4.36328 0.88281,5.24609 5.24609,5.24609c0.33116,0 0.59961,0.26845 0.59961,0.59961c0,0.33116 -0.26845,0.59961 -0.59961,0.59961c-4.36328,0 -5.24609,0.88281 -5.24609,5.24609c-0.00007,0.33113 -0.26848,0.59954 -0.59961,0.59961zM22.61666,7.6361c0.8387,0.35337 1.50599,1.02067 1.85934,1.85938c0.35337,-0.83872 1.02068,-1.50602 1.85941,-1.85938c-0.83872,-0.35335 -1.50604,-1.02065 -1.85941,-1.85937c-0.35335,0.8387 -1.02064,1.506 -1.85934,1.85937z"></path></g></g></svg>