<svg width="21" height="30" viewBox="0 0 21 30" fill="none" xmlns="http://www.w3.org/2000/svg">
<path d="M10.2918 23.2435C9.59795 24.8518 8.88971 26.4522 8.21832 28.0685C7.63666 29.4663 7.65429 29.4773 6.17211 29.4932C5.39977 29.4932 4.62904 29.4932 3.8567 29.4837C2.53155 29.4678 2.44022 29.3554 3.02027 28.2173C3.96566 26.3588 4.9431 24.5226 5.92054 22.6768C6.0295 22.4694 6.15288 22.2684 6.26184 22.061C6.61756 21.3866 6.52142 21.0637 5.6898 20.7345C4.13551 20.1203 2.66775 19.286 1.18237 18.5088C0.541423 18.1732 0.523797 17.6904 0.970855 17.1347C1.41791 16.5791 1.86818 15.9696 2.27197 15.357C2.73986 14.6478 3.21095 14.6273 3.87433 15.1354C5.77472 16.5854 7.91067 17.4624 10.3462 17.5099C12.8235 17.5542 14.9835 16.6725 16.9464 15.2557C17.9462 14.5323 18.1113 14.5449 18.8452 15.5549C19.2425 16.101 19.6191 16.663 20.0437 17.187C20.4683 17.7109 20.4411 18.17 19.8322 18.485C18.3164 19.2765 16.8182 20.0981 15.2447 20.7535C14.4964 21.0701 14.3217 21.3059 14.6967 22.0024C15.8076 24.073 16.8994 26.1525 17.9719 28.241C18.5231 29.3127 18.3997 29.4805 17.1707 29.4821C16.2509 29.4821 15.3296 29.4488 14.4114 29.4963C13.6535 29.5343 13.2289 29.281 12.9469 28.5465C12.3508 26.9873 11.6538 25.4644 10.9856 23.9321C10.8609 23.6867 10.7207 23.4493 10.5658 23.2213L10.2918 23.2435Z" fill="#CE524A" fill-opacity="0.7"/>
<path d="M3.12517 7.35828C3.09789 3.38969 6.4069 0.0401477 10.3979 0.000157885C12.3642 -0.0126328 14.2554 0.752194 15.6569 2.12699C17.0584 3.50178 17.8558 5.37437 17.8745 7.33428C17.9226 11.3173 14.5318 14.75 10.5488 14.75C9.5741 14.7517 8.60865 14.5617 7.70774 14.1909C6.80683 13.8201 5.98814 13.2759 5.29856 12.5892C4.60899 11.9026 4.06207 11.0872 3.68912 10.1896C3.31618 9.29195 3.12453 8.32982 3.12517 7.35828ZM10.5071 10.6326C12.391 10.6326 13.7872 9.27939 13.8016 7.43346C13.8161 5.52515 12.4296 4.09351 10.5408 4.07432C10.102 4.06039 9.66498 4.13544 9.2562 4.29491C8.84741 4.45437 8.47538 4.69494 8.16266 5.00201C7.84994 5.30909 7.60305 5.67628 7.43696 6.08131C7.27087 6.48634 7.18904 6.92078 7.19644 7.35828C7.18842 9.25379 8.57813 10.631 10.5054 10.6326H10.5071Z" fill="#CE524A" fill-opacity="0.7"/>
</svg>
