<svg width="23" height="30" viewBox="0 0 23 30" fill="none" xmlns="http://www.w3.org/2000/svg">
<path d="M20.6307 22.2201C19.3374 20.5024 17.9013 19.3173 16.0238 20.3309L14.9006 20.9461C14.0798 21.3914 12.1814 23.9009 8.49289 17.1121C4.8038 10.3308 7.94425 10.0974 8.76493 9.65746L9.89357 9.04244C11.7635 8.02394 11.5525 6.17391 10.8137 4.15405L10.3687 2.93116C9.62388 0.914274 8.64385 -0.518974 6.77029 0.496551L5.75678 1.05057C4.95011 1.40281 2.64428 2.61777 1.48145 5.6383C0.084508 9.26216 0.922026 13.9516 3.9757 19.5695C7.02375 25.1883 10.5056 28.4426 14.3094 29.2415C17.4706 29.9057 19.7499 28.6351 20.4818 28.1517L21.4986 27.5974C23.3678 26.5819 22.701 24.9791 21.4074 23.2581L20.6307 22.2201Z" fill="#CE524A"/>
</svg>
