<svg width="28" height="23" viewBox="0 0 28 23" fill="none" xmlns="http://www.w3.org/2000/svg">
<path fill-rule="evenodd" clip-rule="evenodd" d="M1.92385 9.90128C9.44176 6.65576 14.4542 4.51594 16.9612 3.4818C24.1217 0.530176 25.6101 0.0170275 26.5796 0.000161093C26.7931 -0.00341664 27.2701 0.0512719 27.579 0.297624C27.8394 0.507177 27.9116 0.790839 27.9457 0.989659C27.9981 1.32227 28.0127 1.65968 27.989 1.99551C27.6007 6.03631 25.9221 15.8444 25.0675 20.3687C24.7066 22.2833 23.9944 22.9242 23.3054 22.9886C21.8098 23.1251 20.6712 22.0078 19.2205 21.0653C16.9514 19.5913 15.6694 18.6734 13.4663 17.2346C10.9203 15.572 12.571 14.6581 14.0217 13.1647C14.4013 12.7737 20.9992 6.82698 21.1265 6.28675C21.1425 6.21928 21.1575 5.96782 21.0064 5.83493C20.8553 5.70204 20.6335 5.74753 20.4726 5.78382C20.245 5.83493 16.6196 8.20986 9.59647 12.9086C8.56713 13.6088 7.63508 13.9496 6.80033 13.9308C5.87929 13.9109 4.10836 13.4146 2.79178 12.9904C1.17711 12.4701 -0.106471 12.1951 0.00698338 11.3119C0.0643982 10.8526 0.703353 10.3824 1.92385 9.90128Z" fill="#CE524A" fill-opacity="0.7"/>
</svg>
