<svg width="181" height="30" viewBox="0 0 181 30" fill="none" xmlns="http://www.w3.org/2000/svg">
<path d="M14.8767 0.123047L19.6074 8.48855L29.0253 10.4026L22.5311 17.4868L23.621 27.0353L14.8767 23.0481L6.1324 27.0353L7.22232 17.4868L0.728118 10.4026L10.146 8.48855L14.8767 0.123047Z" fill="#FFC300"/>
<path d="M52.8962 0.123047L57.6269 8.48855L67.0448 10.4026L60.5506 17.4868L61.6406 27.0353L52.8962 23.0481L44.1519 27.0353L45.2419 17.4868L38.7476 10.4026L48.1656 8.48855L52.8962 0.123047Z" fill="#FFC300"/>
<path d="M90.4986 0.123047L95.0979 8.48855L104.254 10.4026L97.9404 17.4868L99 27.0353L90.4986 23.0481L81.9972 27.0353L83.0569 17.4868L76.743 10.4026L85.8994 8.48855L90.4986 0.123047Z" fill="#FFC300"/>
<path d="M128.103 0.123047L132.834 8.48855L142.252 10.4026L135.758 17.4868L136.848 27.0353L128.103 23.0481L119.359 27.0353L120.449 17.4868L113.955 10.4026L123.373 8.48855L128.103 0.123047Z" fill="#FFC300"/>
<path d="M166.123 0.123047L170.853 8.48855L180.271 10.4026L173.777 17.4868L174.867 27.0353L166.123 23.0481L157.378 27.0353L158.468 17.4868L151.974 10.4026L161.392 8.48855L166.123 0.123047Z" fill="#FFC300"/>
</svg>
